<?xml version="1.0" encoding="UTF-8"?>
<svg width="263px" height="132px" viewBox="0 0 263 132" version="1.1" xmlns="http://www.w3.org/2000/svg" xmlns:xlink="http://www.w3.org/1999/xlink">
    <!-- Generator: Sketch 48.2 (47327) - http://www.bohemiancoding.com/sketch -->
    <title>docs to code</title>
    <desc>Created with Sketch.</desc>
    <defs>
        <path d="M26.8630326,5.29096825 C32.3740677,6.16795112 37.2165752,9.44968347 40.090349,14.255025 C42.9641229,19.0603666 43.5746861,24.8969118 41.7581034,30.197557 L46.2201012,31.7411991 C48.4908296,25.1153926 47.7276255,17.8197111 44.1354082,11.8130341 C40.5431909,5.80635722 34.4900565,1.70419177 27.6012627,0.60796319 L26.8630326,5.29096825 Z" id="path-1"></path>
        <filter x="-60.6%" y="-33.7%" width="221.1%" height="180.3%" filterUnits="objectBoundingBox" id="filter-2">
            <feMorphology radius="1" operator="dilate" in="SourceAlpha" result="shadowSpreadOuter1"></feMorphology>
            <feOffset dx="0" dy="2" in="shadowSpreadOuter1" result="shadowOffsetOuter1"></feOffset>
            <feGaussianBlur stdDeviation="3.5" in="shadowOffsetOuter1" result="shadowBlurOuter1"></feGaussianBlur>
            <feComposite in="shadowBlurOuter1" in2="SourceAlpha" operator="out" result="shadowBlurOuter1"></feComposite>
            <feColorMatrix values="0 0 0 0 0   0 0 0 0 0   0 0 0 0 0  0 0 0 0.878623188 0" type="matrix" in="shadowBlurOuter1"></feColorMatrix>
        </filter>
        <path d="M38.5798339,35.9583752 C35.0683955,40.3151114 29.8184321,42.8877778 24.239551,42.9856172 C18.66067,43.0834567 13.3245418,40.6964435 9.66390905,36.4654873 L6.10235822,39.576112 C10.6781492,44.8648073 17.3483094,47.8485737 24.3219107,47.7262744 C31.295512,47.6039751 37.8579663,44.3881421 42.2472643,38.9422219 L38.5798339,35.9583752 Z" id="path-3"></path>
        <filter x="-34.6%" y="-89.2%" width="169.2%" height="312.4%" filterUnits="objectBoundingBox" id="filter-4">
            <feMorphology radius="1" operator="dilate" in="SourceAlpha" result="shadowSpreadOuter1"></feMorphology>
            <feOffset dx="0" dy="2" in="shadowSpreadOuter1" result="shadowOffsetOuter1"></feOffset>
            <feGaussianBlur stdDeviation="3.5" in="shadowOffsetOuter1" result="shadowBlurOuter1"></feGaussianBlur>
            <feComposite in="shadowBlurOuter1" in2="SourceAlpha" operator="out" result="shadowBlurOuter1"></feComposite>
            <feColorMatrix values="0 0 0 0 0   0 0 0 0 0   0 0 0 0 0  0 0 0 0.878623188 0" type="matrix" in="shadowBlurOuter1"></feColorMatrix>
        </filter>
        <path d="M1.88181016,32.5187804 L6.2874706,30.819622 C4.2878739,25.585903 4.6953298,19.7315043 7.40043699,14.8283233 C10.1055442,9.92514231 14.8311091,6.47561019 20.3083246,5.40592123 L19.4078776,0.751654415 C12.5613583,2.08876561 6.65440213,6.40068076 3.27301815,12.529657 C-0.108365838,18.6586332 -0.617685712,26.6441714 1.88181016,33.1863202" id="path-5"></path>
        <filter x="-62.5%" y="-32.4%" width="225.0%" height="177.1%" filterUnits="objectBoundingBox" id="filter-6">
            <feMorphology radius="1" operator="dilate" in="SourceAlpha" result="shadowSpreadOuter1"></feMorphology>
            <feOffset dx="0" dy="2" in="shadowSpreadOuter1" result="shadowOffsetOuter1"></feOffset>
            <feGaussianBlur stdDeviation="3.5" in="shadowOffsetOuter1" result="shadowBlurOuter1"></feGaussianBlur>
            <feComposite in="shadowBlurOuter1" in2="SourceAlpha" operator="out" result="shadowBlurOuter1"></feComposite>
            <feColorMatrix values="0 0 0 0 0   0 0 0 0 0   0 0 0 0 0  0 0 0 0.878623188 0" type="matrix" in="shadowBlurOuter1"></feColorMatrix>
        </filter>
        <ellipse id="path-7" cx="23.9101124" cy="24.0229885" rx="3.53932584" ry="3.55603448"></ellipse>
        <filter x="-98.9%" y="-70.3%" width="297.8%" height="296.8%" filterUnits="objectBoundingBox" id="filter-8">
            <feOffset dx="0" dy="2" in="SourceAlpha" result="shadowOffsetOuter1"></feOffset>
            <feGaussianBlur stdDeviation="2" in="shadowOffsetOuter1" result="shadowBlurOuter1"></feGaussianBlur>
            <feComposite in="shadowBlurOuter1" in2="SourceAlpha" operator="out" result="shadowBlurOuter1"></feComposite>
            <feColorMatrix values="0 0 0 0 0   0 0 0 0 0   0 0 0 0 0  0 0 0 0.850430254 0" type="matrix" in="shadowBlurOuter1"></feColorMatrix>
        </filter>
    </defs>
    <g id="Symbols" stroke="none" stroke-width="1" fill="none" fill-rule="evenodd">
        <g id="docs-to-code">
            <g id="Dot" transform="translate(112.000000, 43.000000)">
                <g transform="translate(3.775281, 1.896552)">
                    <g id="Shape" fill-rule="nonzero">
                        <use fill="black" fill-opacity="1" filter="url(#filter-2)" xlink:href="#path-1"></use>
                        <use stroke="#F5F5F5" stroke-width="2" fill-opacity="0.865743886" fill="#404040" fill-rule="evenodd" xlink:href="#path-1"></use>
                    </g>
                    <g id="Shape" fill-rule="nonzero">
                        <use fill="black" fill-opacity="1" filter="url(#filter-4)" xlink:href="#path-3"></use>
                        <use stroke="#F5F5F5" stroke-width="2" fill-opacity="0.865743886" fill="#404040" fill-rule="evenodd" xlink:href="#path-3"></use>
                    </g>
                    <g id="Shape" fill-rule="nonzero">
                        <use fill="black" fill-opacity="1" filter="url(#filter-6)" xlink:href="#path-5"></use>
                        <use stroke="#F5F5F5" stroke-width="2" fill-opacity="0.865743886" fill="#404040" fill-rule="evenodd" xlink:href="#path-5"></use>
                    </g>
                    <g id="Oval" fill-rule="nonzero">
                        <use fill="black" fill-opacity="1" filter="url(#filter-8)" xlink:href="#path-7"></use>
                        <use fill-opacity="0.505774457" fill="#E8E8E8" fill-rule="evenodd" xlink:href="#path-7"></use>
                    </g>
                </g>
            </g>
            <g id="Group" transform="translate(7.000000, 24.000000)">
                <g id="writing" fill-rule="nonzero">
                    <polygon id="Shape" stroke="#D8D8D8" fill="#FFFFFF" points="0.947456214 0.33731598 69.1643036 0.33731598 69.1643036 77.5778904 55.0644597 91.7697888 0.947456214 91.7697888"></polygon>
                    <polygon id="Shape" fill="#FFDB88" points="55.2682791 77.8009388 69.1643036 77.8009388 55.2682791 91.7697888"></polygon>
                    <path d="M9.79038087,29.7524458 L59.058104,29.7524458 L59.058104,30.4885854 L9.79038087,30.4885854 L9.79038087,29.7524458 Z M9.79038087,24.9386387 L59.058104,24.9386387 L59.058104,25.6747783 L9.79038087,25.6747783 L9.79038087,24.9386387 Z M9.79038087,20.1250776 L59.058104,20.1250776 L59.058104,20.8612172 L9.79038087,20.8612172 L9.79038087,20.1250776 Z M9.79038087,15.3112705 L59.058104,15.3112705 L59.058104,16.0474101 L9.79038087,16.0474101 L9.79038087,15.3112705 Z" id="Shape" fill="#C8CACC"></path>
                    <path d="M9.79038087,69.9157913 L59.058104,69.9157913 L59.058104,70.6519309 L9.79038087,70.6519309 L9.79038087,69.9157913 Z M9.79038087,65.1019842 L59.058104,65.1019842 L59.058104,65.8381238 L9.79038087,65.8381238 L9.79038087,65.1019842 Z" id="Shape" fill="#C8CACC"></path>
                </g>
                <rect id="Rectangle-6" fill="#E9E9E9" x="11" y="35" width="49" height="26"></rect>
                <g id="white" transform="translate(13.000000, 37.000000)" fill="#FFFFFF">
                    <rect id="Rectangle-2" x="0" y="0" width="2" height="2"></rect>
                </g>
                <g id="white" transform="translate(34.000000, 37.000000)" fill="#FFFFFF">
                    <rect id="Rectangle-2" x="0" y="0" width="4" height="2"></rect>
                </g>
                <g id="white" transform="translate(32.000000, 50.000000)" fill="#FFFFFF">
                    <rect id="Rectangle-2" x="0" y="0" width="4" height="2"></rect>
                </g>
                <g id="blue" transform="translate(17.000000, 37.000000)" fill="#318FB6">
                    <rect id="Rectangle-3" x="0" y="0" width="15" height="2"></rect>
                </g>
                <g id="blue" transform="translate(26.000000, 43.000000)" fill="#318FB6">
                    <rect id="Rectangle-3" x="0" y="0" width="17" height="2"></rect>
                </g>
                <g id="green" transform="translate(13.000000, 50.000000)" fill="#9EDE76">
                    <rect id="Rectangle-2" x="0" y="0" width="17" height="2"></rect>
                </g>
                <g id="orange" transform="translate(13.000000, 43.000000)" fill="#E1BE7E">
                    <rect id="Rectangle-3" x="0" y="0" width="11" height="2"></rect>
                </g>
                <g id="orange" transform="translate(45.000000, 43.000000)" fill="#E1BE7E">
                    <rect id="Rectangle-3" x="0" y="0" width="11" height="2"></rect>
                </g>
                <g id="orange" transform="translate(13.000000, 56.000000)" fill="#E1BE7E">
                    <rect id="Rectangle-3" x="0" y="0" width="11" height="2"></rect>
                </g>
            </g>
            <g id="Group-2" transform="translate(211.000000, 21.000000)">
                <g id="writing" fill="#000000" fill-opacity="0.878623188" fill-rule="nonzero">
                    <polygon id="Shape" points="5.54413683e-15 0 36 0 36 23 0 23"></polygon>
                </g>
                <g id="blue" transform="translate(3.000000, 2.000000)" fill="#318FB6">
                    <rect id="Rectangle-3" x="0" y="0" width="14" height="1"></rect>
                </g>
                <g id="red" transform="translate(18.000000, 2.000000)" fill="#FF6174">
                    <rect id="Rectangle-2" x="0" y="0" width="6" height="1"></rect>
                </g>
                <g id="red" transform="translate(17.000000, 9.000000)" fill="#FF6174">
                    <rect id="Rectangle-2" x="0" y="0" width="4" height="1"></rect>
                </g>
                <g id="orange" transform="translate(3.000000, 5.000000)" fill="#E1BE7E">
                    <rect id="Rectangle-3" x="0" y="0" width="6" height="1"></rect>
                </g>
                <g id="orange" transform="translate(11.000000, 5.000000)" fill="#E1BE7E">
                    <rect id="Rectangle-3" x="0" y="0" width="6" height="1"></rect>
                </g>
                <g id="orange" transform="translate(22.000000, 9.000000)" fill="#E1BE7E">
                    <rect id="Rectangle-3" x="0" y="0" width="4" height="1"></rect>
                </g>
                <g id="orange" transform="translate(11.000000, 12.000000)" fill="#E1BE7E">
                    <rect id="Rectangle-3" x="0" y="0" width="12" height="1"></rect>
                </g>
                <g id="white" transform="translate(19.000000, 5.000000)" fill="#FFFFFF">
                    <rect id="Rectangle-2" x="0" y="0" width="9" height="1"></rect>
                </g>
                <g id="white" transform="translate(3.000000, 12.000000)" fill="#FFFFFF">
                    <rect id="Rectangle-2" x="0" y="0" width="6" height="1"></rect>
                </g>
                <g id="white" transform="translate(25.000000, 12.000000)" fill="#FFFFFF">
                    <rect id="Rectangle-2" x="0" y="0" width="6" height="1"></rect>
                </g>
                <g id="white" transform="translate(3.000000, 19.000000)" fill="#FFFFFF">
                    <rect id="Rectangle-2" x="0" y="0" width="14" height="1"></rect>
                </g>
                <g id="blue" transform="translate(18.000000, 19.000000)" fill="#318FB6">
                    <rect id="Rectangle-3" x="0" y="0" width="6" height="1"></rect>
                </g>
                <g id="grey" transform="translate(3.000000, 9.000000)" fill="#A9A9A9">
                    <rect id="Rectangle-3" x="0" y="0" width="12" height="1"></rect>
                </g>
                <g id="green" transform="translate(17.000000, 16.000000)" fill="#9EDE76">
                    <rect id="Rectangle-2" x="0" y="0" width="4" height="1"></rect>
                </g>
                <g id="red" transform="translate(3.000000, 16.000000)" fill="#FF6174">
                    <rect id="Rectangle-2" x="0" y="0" width="12" height="1"></rect>
                </g>
            </g>
            <g id="Group-2" transform="translate(211.000000, 59.000000)">
                <g id="writing" fill="#000000" fill-opacity="0.878623188" fill-rule="nonzero">
                    <polygon id="Shape" points="5.54413683e-15 0 36 0 36 23 0 23"></polygon>
                </g>
                <g id="blue" transform="translate(3.000000, 2.000000)" fill="#318FB6">
                    <rect id="Rectangle-3" x="0" y="0" width="14" height="1"></rect>
                </g>
                <g id="red" transform="translate(13.000000, 9.000000)" fill="#FF6174">
                    <rect id="Rectangle-2" x="0" y="0" width="9" height="1"></rect>
                </g>
                <g id="green" transform="translate(3.000000, 5.000000)" fill="#9EDE76">
                    <rect id="Rectangle-2" x="0" y="0" width="12" height="1"></rect>
                </g>
                <g id="orange" transform="translate(11.000000, 12.000000)" fill="#E1BE7E">
                    <rect id="Rectangle-3" x="0" y="0" width="12" height="1"></rect>
                </g>
                <g id="blue" transform="translate(16.000000, 5.000000)" fill="#318FB6">
                    <rect id="Rectangle-3" x="0" y="0" width="9" height="1"></rect>
                </g>
                <g id="blue" transform="translate(3.000000, 12.000000)" fill="#318FB6">
                    <rect id="Rectangle-3" x="0" y="0" width="6" height="1"></rect>
                </g>
                <g id="white" transform="translate(25.000000, 12.000000)" fill="#FFFFFF">
                    <rect id="Rectangle-2" x="0" y="0" width="6" height="1"></rect>
                </g>
                <g id="orange" transform="translate(3.000000, 19.000000)" fill="#E1BE7E">
                    <rect id="Rectangle-3" x="0" y="0" width="9" height="1"></rect>
                </g>
                <g id="white" transform="translate(13.000000, 19.000000)" fill="#FFFFFF">
                    <rect id="Rectangle-2" x="0" y="0" width="3" height="1"></rect>
                </g>
                <g id="white" transform="translate(3.000000, 9.000000)" fill="#FFFFFF">
                    <rect id="Rectangle-2" x="0" y="0" width="9" height="1"></rect>
                </g>
                <g id="green" transform="translate(3.000000, 16.000000)" fill="#9EDE76">
                    <rect id="Rectangle-2" x="0" y="0" width="6" height="1"></rect>
                </g>
            </g>
            <g id="Group-2" transform="translate(211.000000, 97.000000)">
                <g id="writing" fill="#000000" fill-opacity="0.878623188" fill-rule="nonzero">
                    <polygon id="Shape" points="5.54413683e-15 0 36 0 36 23 0 23"></polygon>
                </g>
                <g id="white" transform="translate(3.000000, 2.000000)" fill="#FFFFFF">
                    <rect id="Rectangle-2" x="0" y="0" width="6" height="1"></rect>
                </g>
                <g id="blue" transform="translate(16.000000, 9.000000)" fill="#318FB6">
                    <rect id="Rectangle-3" x="0" y="0" width="4" height="1"></rect>
                </g>
                <g id="green" transform="translate(3.000000, 5.000000)" fill="#9EDE76">
                    <rect id="Rectangle-2" x="0" y="0" width="6" height="1"></rect>
                </g>
                <g id="blue" transform="translate(10.000000, 5.000000)" fill="#318FB6">
                    <rect id="Rectangle-3" x="0" y="0" width="6" height="1"></rect>
                </g>
                <g id="orange" transform="translate(21.000000, 9.000000)" fill="#E1BE7E">
                    <rect id="Rectangle-3" x="0" y="0" width="4" height="1"></rect>
                </g>
                <g id="green" transform="translate(10.000000, 12.000000)" fill="#9EDE76">
                    <rect id="Rectangle-2" x="0" y="0" width="12" height="1"></rect>
                </g>
                <g id="blue" transform="translate(3.000000, 12.000000)" fill="#318FB6">
                    <rect id="Rectangle-3" x="0" y="0" width="6" height="1"></rect>
                </g>
                <g id="white" transform="translate(23.000000, 12.000000)" fill="#FFFFFF">
                    <rect id="Rectangle-2" x="0" y="0" width="6" height="1"></rect>
                </g>
                <g id="white" transform="translate(3.000000, 19.000000)" fill="#FFFFFF">
                    <rect id="Rectangle-2" x="0" y="0" width="14" height="1"></rect>
                </g>
                <g id="blue" transform="translate(18.000000, 19.000000)" fill="#318FB6">
                    <rect id="Rectangle-3" x="0" y="0" width="6" height="1"></rect>
                </g>
                <g id="red" transform="translate(3.000000, 9.000000)" fill="#FF6174">
                    <rect id="Rectangle-2" x="0" y="0" width="12" height="1"></rect>
                </g>
                <g id="red" transform="translate(10.000000, 16.000000)" fill="#FF6174">
                    <rect id="Rectangle-2" x="0" y="0" width="6" height="1"></rect>
                </g>
                <g id="blue" transform="translate(10.000000, 2.000000)" fill="#318FB6">
                    <rect id="Rectangle-3" x="0" y="0" width="4" height="1"></rect>
                </g>
                <g id="grey" transform="translate(15.000000, 2.000000)" fill="#A9A9A9">
                    <rect id="Rectangle-3" x="0" y="0" width="6" height="1"></rect>
                </g>
                <g id="blue" transform="translate(3.000000, 16.000000)" fill="#318FB6">
                    <rect id="Rectangle-3" x="0" y="0" width="6" height="1"></rect>
                </g>
            </g>
            <path d="M81.5,70.5 L103.5,70.5" id="Line" stroke="#979797" stroke-linecap="square"></path>
            <polyline id="Path-9" stroke="#979797" transform="translate(203.959620, 97.825964) scale(1, -1) translate(-203.959620, -97.825964) " points="194.033913 125.659996 194.033913 119.920006 194.033913 69.9919323 213.885328 69.9919323"></polyline>
        </g>
        <polyline id="Path-9" stroke="#979797" points="173.348509 69.659996 194.033913 69.659996 194.033913 63.9200056 194.033913 13.9919323 213.885328 13.9919323"></polyline>
    </g>
</svg>