<?xml version="1.0" encoding="UTF-8"?>
<svg width="45px" height="45px" viewBox="0 0 45 45" version="1.1" xmlns="http://www.w3.org/2000/svg" xmlns:xlink="http://www.w3.org/1999/xlink">
    <!-- Generator: Sketch 48.1 (47250) - http://www.bohemiancoding.com/sketch -->
    <title>Flexible</title>
    <desc>Created with Sketch.</desc>
    <defs></defs>
    <g id="Symbols" stroke="none" stroke-width="1" fill="none" fill-rule="evenodd">
        <g id="Flexible" fill="#318FB6" fill-rule="nonzero">
            <g id="003-checked" transform="translate(5.000000, 9.000000)">
                <path d="M0.403846154,14.8076923 C0.134615385,14.5384615 0,14.1346154 0,13.8653846 C0,13.5961538 0.134615385,13.1923077 0.403846154,12.9230769 L2.28846154,11.0384615 C2.82692308,10.5 3.63461538,10.5 4.17307692,11.0384615 L4.30769231,11.1730769 L11.7115385,19.1153846 C11.9807692,19.3846154 12.3846154,19.3846154 12.6538462,19.1153846 L30.6923077,0.403846154 L30.8269231,0.403846154 C31.3653846,-0.134615385 32.1730769,-0.134615385 32.7115385,0.403846154 L34.5961538,2.28846154 C35.1346154,2.82692308 35.1346154,3.63461538 34.5961538,4.17307692 L13.0576923,26.5192308 C12.7884615,26.7884615 12.5192308,26.9230769 12.1153846,26.9230769 C11.7115385,26.9230769 11.4423077,26.7884615 11.1730769,26.5192308 L0.673076923,15.2115385 L0.403846154,14.8076923 Z" id="Shape"></path>
            </g>
        </g>
    </g>
</svg>