<?xml version="1.0" encoding="utf-8"?>
<!-- Generator: Adobe Illustrator 16.0.0, SVG Export Plug-In . SVG Version: 6.00 Build 0)  -->
<!DOCTYPE svg PUBLIC "-//W3C//DTD SVG 1.1//EN" "http://www.w3.org/Graphics/SVG/1.1/DTD/svg11.dtd">
<svg version="1.1" id="Layer_1" xmlns="http://www.w3.org/2000/svg" xmlns:xlink="http://www.w3.org/1999/xlink" x="0px" y="0px"
	 width="45px" height="45px" viewBox="0 0 45 45" enable-background="new 0 0 45 45" xml:space="preserve">
<title>forTeams</title>
<desc>Created with Sketch.</desc>
<g id="Symbols">
	<g id="forTeams">
		<g id="group" transform="translate(1.000000, 9.000000)">
			<path id="Shape" fill="#5F64E9" d="M29.889,8.956v3.308c0,0.623,0.246,1.202,0.668,1.641v1.124c0,0.482,0.386,0.868,0.869,0.868
				c0.482,0,0.868-0.386,0.868-0.868v-1.527c0-0.29-0.149-0.562-0.386-0.719c-0.176-0.114-0.281-0.307-0.281-0.518V8.956
				c0-1.159,0.947-2.106,2.105-2.106h0.711c1.158,0,2.106,0.948,2.106,2.106v3.308c0,0.211-0.104,0.404-0.28,0.518
				c-0.246,0.158-0.387,0.43-0.387,0.719v3.186c0,0.386,0.229,0.746,0.57,0.913c0.412,0.201,2.555,1.281,4.537,2.904
				c0.167,0.141,0.264,0.342,0.264,0.57v1.396h-6.09c-0.483,0-0.869,0.386-0.869,0.868c0,0.483,0.386,0.869,0.869,0.869h6.959
				c0.482,0,0.868-0.386,0.868-0.869v-2.264c0-0.746-0.325-1.439-0.903-1.913c-1.747-1.431-3.616-2.475-4.467-2.922v-2.343
				c0.421-0.439,0.666-1.018,0.666-1.641V8.947c0-2.124-1.729-3.844-3.844-3.844h-0.711C31.618,5.112,29.889,6.832,29.889,8.956z"/>
			<path id="Shape_1_" fill="#5F64E9" d="M0.869,24.207h7.064c0.482,0,0.869-0.386,0.869-0.869c0-0.482-0.386-0.868-0.869-0.868
				H1.737v-1.396c0-0.219,0.097-0.43,0.264-0.57c1.974-1.623,4.125-2.711,4.537-2.904c0.351-0.167,0.571-0.527,0.571-0.913v-3.186
				c0-0.29-0.149-0.562-0.386-0.719c-0.176-0.114-0.281-0.307-0.281-0.518V8.956c0-1.159,0.948-2.106,2.106-2.106h0.711
				c1.158,0,2.106,0.948,2.106,2.106v3.308c0,0.211-0.105,0.404-0.281,0.518c-0.246,0.158-0.386,0.43-0.386,0.719v1.597
				c0,0.483,0.386,0.869,0.869,0.869c0.483,0,0.869-0.386,0.869-0.869v-1.193c0.421-0.439,0.667-1.018,0.667-1.641V8.956
				c0-2.124-1.729-3.844-3.844-3.844H8.547c-2.124,0-3.844,1.729-3.844,3.844v3.308c0,0.623,0.246,1.202,0.667,1.641v2.343
				c-0.86,0.447-2.72,1.482-4.467,2.922C0.333,19.645,0,20.338,0,21.083v2.255C0,23.821,0.386,24.207,0.869,24.207z"/>
			<path id="Shape_2_" fill="#5F64E9" d="M26.713,9V4.726c0-2.606-2.115-4.721-4.722-4.721H21.07c-2.606,0-4.721,2.115-4.721,4.721
				V9c0,0.772,0.316,1.492,0.86,2.018v3.291c-1.027,0.526-3.537,1.896-5.88,3.826c-0.685,0.562-1.07,1.387-1.07,2.272v2.931
				c0,0.483,0.386,0.869,0.869,0.869h20.798c0.482,0,0.868-0.386,0.868-0.869v-2.931c0-0.886-0.386-1.711-1.07-2.272
				c-2.343-1.922-4.853-3.3-5.88-3.826v-3.291C26.396,10.5,26.713,9.771,26.713,9z M30.627,19.477
				c0.28,0.229,0.438,0.571,0.438,0.931v2.062H12.005v-2.062c0-0.359,0.158-0.702,0.439-0.931c2.58-2.123,5.379-3.535,5.915-3.799
				c0.36-0.176,0.597-0.553,0.597-0.948v-4.125c0-0.29-0.149-0.562-0.386-0.719c-0.298-0.202-0.474-0.527-0.474-0.878V4.734
				c0-1.65,1.343-2.984,2.983-2.984H22c1.65,0,2.984,1.343,2.984,2.984v4.273c0,0.351-0.176,0.685-0.475,0.878
				c-0.246,0.158-0.386,0.43-0.386,0.719v4.125c0,0.403,0.237,0.772,0.597,0.948C25.247,15.941,28.047,17.362,30.627,19.477z"/>
		</g>
	</g>
</g>
</svg>
