<?xml version="1.0" encoding="UTF-8"?>
<svg width="45px" height="45px" viewBox="0 0 45 45" version="1.1" xmlns="http://www.w3.org/2000/svg" xmlns:xlink="http://www.w3.org/1999/xlink">
    <!-- Generator: Sketch 48.1 (47250) - http://www.bohemiancoding.com/sketch -->
    <title>Full Control</title>
    <desc>Created with Sketch.</desc>
    <defs></defs>
    <g id="Symbols" stroke="none" stroke-width="1" fill="none" fill-rule="evenodd">
        <g id="Full-Control" fill="#B8E986" fill-rule="nonzero">
            <g id="005-settings" transform="translate(6.000000, 6.000000)">
                <path d="M32.4843408,13.7166897 C31.8449138,13.6209314 31.1884867,13.529091 30.5333878,13.4436921 C30.4540321,13.433399 30.3896179,13.3795432 30.3695632,13.3066287 C30.067215,12.2093919 29.628468,11.1506044 29.0656076,10.1596845 C29.0277559,10.0931451 29.0348614,10.0092071 29.0837365,9.94565593 C29.486624,9.42203958 29.885992,8.89271226 30.2708169,8.37248265 C30.7903804,7.67003322 30.7149428,6.67326957 30.0955041,6.05376203 L27.9461952,3.90444475 C27.3266901,3.28500362 26.3299967,3.20956568 25.6274172,3.72926404 C25.1083186,4.11322723 24.5790597,4.51259675 24.0543165,4.91628271 C23.9909648,4.965158 23.9068279,4.97226351 23.8402888,4.93447813 C22.8494392,4.37161546 21.7906558,3.93286679 20.6933568,3.63045096 C20.6203762,3.61046256 20.5665206,3.54604812 20.5561612,3.46649297 C20.4705634,2.81039537 20.3787898,2.15403215 20.2832974,1.51573154 C20.1540042,0.651581943 19.395909,0 18.5198096,0 L15.4801904,0 C14.6040246,0 13.8459294,0.651581943 13.7168354,1.51566513 C13.6212766,2.15409856 13.529503,2.81039537 13.4439052,3.46662578 C13.4334794,3.54611453 13.3796902,3.61039615 13.3066432,3.63045096 C12.2093442,3.93299961 11.1504944,4.37168187 10.1598441,4.93447813 C10.0932385,4.97226351 10.009168,4.96495878 9.94568349,4.91628271 C9.42100668,4.51259675 8.89168143,4.11322723 8.37251635,3.72919763 C7.66987045,3.20956568 6.6731771,3.28513644 6.05380479,3.90451116 L3.90449591,6.05382844 C3.28499079,6.67340238 3.20961955,7.67023244 3.72931588,8.37261546 C4.11473851,8.89364195 4.51410647,9.42283646 4.91632991,9.94565593 C4.9651386,10.0090743 4.97231049,10.0930787 4.93452526,10.1596845 C4.37153198,11.1508036 3.93285143,12.2095911 3.63050318,13.3066287 C3.61051486,13.3794768 3.54610068,13.4333326 3.46667865,13.4437585 C2.81191174,13.5292238 2.15555109,13.6209978 1.51579202,13.7167562 C0.651579398,13.8459171 0,14.6041481 0,15.4801845 L0,18.519882 C0,19.3959847 0.651579398,20.1541493 1.51565921,20.2833767 C2.15541827,20.379135 2.81184534,20.470909 3.46661224,20.5563079 C3.54610068,20.5667338 3.61038205,20.6205232 3.63043678,20.6935041 C3.93278502,21.7906081 4.37153198,22.8493956 4.93445886,23.8404483 C4.97224409,23.9070541 4.9650722,23.9910585 4.91626351,24.0544769 C4.51304397,24.5785581 4.113676,25.107819 3.72924947,25.6275838 C3.20961955,26.3300332 3.28492438,27.3268632 3.9044295,27.9463708 L6.05373839,30.0956881 C6.67330991,30.7151956 7.67013607,30.7906335 8.37251635,30.2708688 C8.89161502,29.8869056 9.42087387,29.4875361 9.94561708,29.0838501 C10.0090352,29.0349748 10.0931057,29.0279357 10.1596448,29.0656547 C11.150428,29.6285174 12.2091449,30.0671332 13.3065768,30.3696819 C13.3795574,30.3897367 13.433413,30.4540847 13.4437724,30.533507 C13.5293702,31.1896046 13.6212102,31.8460343 13.7167026,32.4842685 C13.8459294,33.3484181 14.6040246,34 15.4801904,34 L18.5198096,34 C19.395909,34 20.1540706,33.3484181 20.283231,32.4841356 C20.3787898,31.8451046 20.4705634,31.1887413 20.5560948,30.5333742 C20.5665206,30.4538855 20.6203098,30.3895374 20.6932904,30.3694162 C21.7905894,30.0668676 22.8494392,29.6281853 23.8401559,29.0653891 C23.9067615,29.0277365 23.9907656,29.0349084 24.0542501,29.0835845 C24.5789269,29.4872704 25.1082522,29.88664 25.6273508,30.2706031 C26.3297975,30.7902351 27.3265573,30.71493 27.9461288,30.0954224 L30.0954377,27.9461052 C30.7148764,27.3265976 30.790314,26.329834 30.2706841,25.6273181 C29.8858592,25.1072877 29.4864248,24.5779604 29.0836037,24.0542113 C29.034795,23.9907929 29.0276231,23.9067885 29.0654747,23.8401827 C29.6284016,22.84913 30.0670822,21.7903425 30.3694304,20.6933048 C30.3896179,20.6202575 30.4538993,20.5664682 30.5333878,20.5560423 C31.1883539,20.4706434 31.8447809,20.378803 32.4842744,20.283111 C33.3484206,20.1539501 34,19.3957855 34,18.5196827 L34,15.4799852 C34,14.6040817 33.3484206,13.8458507 32.4843408,13.7166897 Z M32.4123563,18.5200148 C32.4123563,18.6163044 32.3423639,18.6993127 32.2494614,18.7133245 C31.6197961,18.8075555 30.9733964,18.8978685 30.328192,18.9821386 C29.6137922,19.0752407 29.0292833,19.5813921 28.8389626,20.2717555 C28.5714113,21.2424877 28.1831996,22.179419 27.6851517,23.0563187 C27.3310065,23.6798106 27.3860574,24.451655 27.825402,25.0227521 C28.2222465,25.5385989 28.6155715,26.0598246 28.9944199,26.5719526 C29.0503341,26.6474569 29.0410372,26.7558326 28.9729707,26.8238994 L26.8235954,28.9732166 C26.7554624,29.0413499 26.6471536,29.0504476 26.571716,28.9947324 C26.0605861,28.6165466 25.5392296,28.2232201 25.0224551,27.8256435 C24.4514267,27.3862308 23.6796517,27.3311797 23.0562286,27.6852599 C22.1793324,28.1833097 21.2424048,28.5715893 20.2715435,28.839208 C19.5813156,29.0294631 19.0751662,29.6139743 18.9818652,30.3284433 C18.8977283,30.9740487 18.8072828,31.6204509 18.7131186,32.2497202 C18.6992396,32.3426231 18.6160989,32.4126157 18.5198096,32.4126157 L15.4801904,32.4126157 C15.3839011,32.4126157 15.3007604,32.3426231 15.2868814,32.2496538 C15.1929164,31.621115 15.1024045,30.9747127 15.0181348,30.3285097 C14.9249667,29.6140407 14.4186844,29.0295295 13.7284565,28.8392744 C12.7575288,28.5716557 11.8206012,28.1833761 10.9437714,27.6852599 C10.6703763,27.5300676 10.3684265,27.4534343 10.0674728,27.4534343 C9.68205016,27.4534343 9.29815488,27.5789428 8.97761128,27.8257763 C8.46077043,28.2233529 7.93948035,28.6166794 7.42835045,28.9948652 C7.35277999,29.0505804 7.24460399,29.0414827 7.17653745,28.9733495 L5.02716216,26.8240322 C4.95902922,26.755899 4.94973232,26.6476561 5.0056465,26.5721518 C5.38422927,26.0603558 5.77748785,25.5391301 6.1746644,25.0228849 C6.61394261,24.4517878 6.6690599,23.6800763 6.31504749,23.0566507 C5.81680042,22.1794854 5.42865513,21.2426206 5.16110383,20.2719547 C4.97084955,19.5817241 4.3863406,19.0755063 3.67194077,18.9823378 C3.02700201,18.8982006 2.3805359,18.8076883 1.75053858,18.7135237 C1.65763605,18.6995783 1.58764373,18.6165036 1.58764373,18.520214 L1.58764373,15.4805165 C1.58764373,15.3842269 1.65763605,15.3011522 1.75053858,15.2872068 C2.3805359,15.1929757 3.0269356,15.1025299 3.67180795,15.0183927 C4.38627419,14.9252906 4.97078315,14.4190728 5.16103742,13.7287758 C5.42845591,12.7581763 5.81673402,11.821245 6.31498108,10.9440798 C6.6690599,10.3205878 6.61394261,9.54880986 6.1746644,8.97784557 C5.77855035,8.46279568 5.38522536,7.94163638 5.0056465,7.42857868 C4.94986514,7.35307433 4.95909562,7.2446987 5.02716216,7.1766983 L7.17640464,5.02731461 C7.24440477,4.9591814 7.35271358,4.95008369 7.42821763,5.00579886 C7.93934754,5.38391827 8.46063762,5.77724479 8.97747847,6.17488774 C9.54857334,6.61410125 10.3202819,6.66928517 10.9438378,6.31513857 C11.8206012,5.81708877 12.7575288,5.42880915 13.7283901,5.1611904 C14.4186844,4.97093538 14.9249667,4.38642414 15.0181348,3.67195511 C15.1024709,3.0257521 15.19285,2.37934988 15.2869478,1.75061182 C15.3008268,1.65784175 15.3839675,1.58778274 15.4802568,1.58778274 L18.519876,1.58778274 C18.6161653,1.58778274 18.6993061,1.65777534 18.713185,1.75067823 C18.8072828,2.37921707 18.8976619,3.02555288 18.981998,3.67195511 C19.0751662,4.38642414 19.5814484,4.97093538 20.2716763,5.1611904 C21.2425376,5.42880915 22.1793988,5.81708877 23.0563614,6.31513857 C23.6797845,6.66908595 24.4515595,6.61410125 25.0225215,6.17475493 C25.5393624,5.77717838 26.0606525,5.38385186 26.571716,5.00573246 C26.64722,4.94981807 26.7555952,4.95904859 26.8236618,5.02724821 L28.9729707,7.17656549 C29.0411036,7.2446987 29.0502677,7.35300793 28.9944863,7.42844587 C28.6156379,7.94070668 28.2223129,8.46186599 27.8254684,8.97771276 C27.3861902,9.54887626 27.3310729,10.3206542 27.6852181,10.9441462 C28.1833324,11.8210458 28.5715441,12.7579107 28.8391618,13.7287758 C29.0294161,14.4190064 29.6140578,14.9251578 30.3282585,15.0182599 C30.9734628,15.1024635 31.6199289,15.1929093 32.2496606,15.2870739 C32.3425632,15.3010193 32.4125555,15.384094 32.4125555,15.4803837 L32.4125555,18.5200148 L32.4123563,18.5200148 Z" id="Shape"></path>
                <path d="M17.5,10 C13.3644519,10 10,13.3644519 10,17.5 C10,21.6355481 13.3644519,25 17.5,25 C21.6355481,25 25,21.6355481 25,17.5 C25,13.3644519 21.6355481,10 17.5,10 Z M17.5,23.3864749 C14.2541212,23.3864749 11.6135251,20.7458114 11.6135251,17.5 C11.6135251,14.2541212 14.2542561,11.6135251 17.5,11.6135251 C20.7458114,11.6135251 23.3864749,14.2541886 23.3864749,17.5 C23.3864749,20.7458114 20.7458788,23.3864749 17.5,23.3864749 Z" id="Shape"></path>
            </g>
        </g>
    </g>
</svg>