<?xml version="1.0" encoding="utf-8"?>
<!-- Generator: Adobe Illustrator 16.0.0, SVG Export Plug-In . SVG Version: 6.00 Build 0)  -->
<!DOCTYPE svg PUBLIC "-//W3C//DTD SVG 1.1//EN" "http://www.w3.org/Graphics/SVG/1.1/DTD/svg11.dtd">
<svg version="1.1" id="Layer_1" xmlns="http://www.w3.org/2000/svg" xmlns:xlink="http://www.w3.org/1999/xlink" x="0px" y="0px"
	 width="45px" height="45px" viewBox="0 0 45 45" enable-background="new 0 0 45 45" xml:space="preserve">
<title>Open Source</title>
<desc>Created with Sketch.</desc>
<g id="Symbols">
	<g id="Open-Source">
		<g id="_x30_01-github-logo" transform="translate(4.000000, 4.000000)">
			<path id="Shape" fill="#2D3D4D" d="M34.482,9.235c-1.652-2.832-3.895-5.073-6.726-6.726s-5.923-2.479-9.276-2.479
				c-3.353,0-6.445,0.826-9.276,2.479S4.131,6.403,2.479,9.235C0.826,12.066,0,15.159,0,18.511c0,4.027,1.175,7.648,3.525,10.864
				c2.35,3.217,5.386,5.443,9.108,6.678c0.433,0.08,0.754,0.023,0.962-0.168c0.208-0.192,0.312-0.434,0.312-0.722
				c0-0.048-0.004-0.481-0.012-1.3s-0.012-1.531-0.012-2.141l-0.553,0.096c-0.353,0.064-0.798,0.092-1.335,0.084
				s-1.095-0.063-1.672-0.168c-0.578-0.104-1.115-0.345-1.612-0.722s-0.85-0.87-1.059-1.479l-0.241-0.555
				c-0.16-0.368-0.413-0.777-0.758-1.227c-0.345-0.449-0.694-0.754-1.047-0.914l-0.168-0.121c-0.112-0.08-0.216-0.176-0.312-0.289
				c-0.096-0.111-0.168-0.225-0.217-0.336c-0.048-0.113-0.008-0.205,0.121-0.277c0.128-0.072,0.361-0.107,0.698-0.107l0.481,0.071
				c0.321,0.064,0.718,0.257,1.191,0.577c0.473,0.321,0.862,0.738,1.167,1.252c0.369,0.657,0.814,1.158,1.335,1.504
				c0.521,0.345,1.046,0.517,1.576,0.517s0.987-0.04,1.372-0.12c0.384-0.08,0.746-0.2,1.083-0.361
				c0.145-1.074,0.538-1.9,1.179-2.479c-0.915-0.096-1.736-0.24-2.467-0.433c-0.729-0.192-1.484-0.506-2.262-0.938
				c-0.778-0.434-1.424-0.971-1.937-1.613c-0.513-0.641-0.935-1.483-1.263-2.525c-0.329-1.043-0.493-2.247-0.493-3.61
				c0-1.941,0.634-3.593,1.901-4.957c-0.594-1.459-0.538-3.096,0.168-4.909c0.465-0.145,1.155-0.036,2.069,0.325
				c0.915,0.361,1.584,0.67,2.009,0.927s0.766,0.474,1.023,0.649c1.492-0.417,3.032-0.625,4.62-0.625s3.129,0.208,4.621,0.625
				l0.914-0.577c0.625-0.385,1.363-0.738,2.213-1.059c0.851-0.321,1.501-0.409,1.95-0.264c0.722,1.812,0.786,3.449,0.192,4.908
				c1.268,1.364,1.9,3.017,1.9,4.958c0,1.363-0.164,2.571-0.492,3.622c-0.329,1.051-0.754,1.893-1.275,2.526
				s-1.172,1.167-1.949,1.601c-0.778,0.433-1.533,0.746-2.262,0.938c-0.73,0.193-1.553,0.338-2.467,0.435
				c0.834,0.722,1.251,1.86,1.251,3.417v5.076c0,0.289,0.101,0.529,0.301,0.722s0.517,0.249,0.95,0.169
				c3.723-1.235,6.758-3.461,9.108-6.678s3.525-6.838,3.525-10.865C36.961,15.158,36.135,12.066,34.482,9.235z"/>
		</g>
	</g>
</g>
</svg>
