<?xml version="1.0" encoding="UTF-8"?>
<svg width="45px" height="45px" viewBox="0 0 45 45" version="1.1" xmlns="http://www.w3.org/2000/svg" xmlns:xlink="http://www.w3.org/1999/xlink">
    <!-- Generator: Sketch 48.1 (47250) - http://www.bohemiancoding.com/sketch -->
    <title>Discrete</title>
    <desc>Created with Sketch.</desc>
    <defs></defs>
    <g id="Symbols" stroke="none" stroke-width="1" fill="none" fill-rule="evenodd">
        <g id="Discrete" fill-rule="nonzero">
            <g id="004-laptop" transform="translate(2.000000, 9.000000)" fill="#FF6174">
                <path d="M36.2619594,1.99524573 L4.66900641,1.99524573 C4.11103846,1.99524573 3.65705983,2.44913675 3.65705983,3.0071047 L3.65705983,21.6833056 C3.65705983,22.2412735 4.11103846,22.6951645 4.66900641,22.6951645 L36.2619594,22.6951645 C36.8198397,22.6951645 37.2738184,22.2412735 37.2738184,21.6833056 L37.2738184,3.00719231 C37.2738184,2.44922436 36.8198397,1.99524573 36.2619594,1.99524573 Z M36.39775,21.6833056 C36.39775,21.7582094 36.3368632,21.8190962 36.2619594,21.8190962 L4.66900641,21.8190962 C4.59410256,21.8190962 4.53312821,21.7581218 4.53312821,21.6833056 L4.53312821,3.00719231 C4.53312821,2.93228846 4.59401496,2.87140171 4.66900641,2.87140171 L36.2619594,2.87140171 C36.3367756,2.87140171 36.39775,2.93237607 36.39775,3.00719231 L36.39775,21.6833056 Z" id="Shape"></path>
                <path d="M40.2738269,23.3523034 L39.2449722,23.3523034 L39.2449722,2.52684402 C39.2449722,1.14686111 38.1222906,0.0240918803 36.7422201,0.0240918803 L4.18874573,0.0240918803 C2.80867521,0.0240918803 1.68599359,1.1467735 1.68599359,2.52684402 L1.68599359,23.3522158 L0.657051282,23.3522158 C0.294096154,23.3522158 0,23.6463996 0,24.0092671 L0,25.814406 C0,26.9869359 0.953950855,27.9407991 2.12639316,27.9407991 L38.8043974,27.9407991 C39.9769274,27.9407991 40.9307906,26.9868483 40.9307906,25.814406 L40.9307906,24.0092671 C40.9308782,23.6464872 40.6367821,23.3523034 40.2738269,23.3523034 Z M3.00000855,2.52684402 C3.00000855,1.87145726 3.53327137,1.33819444 4.18865812,1.33819444 L36.7421325,1.33819444 C37.3975192,1.33819444 37.9307821,1.87136966 37.9307821,2.52684402 L37.9307821,23.3522158 L3.00000855,23.3522158 L3.00000855,2.52684402 Z M18.5380449,24.666406 L22.3927457,24.666406 L22.3927457,25.01 C22.3927457,25.16375 22.2676432,25.2889402 22.1138056,25.2889402 L18.8168974,25.2889402 C18.6630598,25.2889402 18.5379573,25.1638376 18.5379573,25.01 L18.5379573,24.666406 L18.5380449,24.666406 Z M39.6168632,25.8144936 C39.6168632,26.2624274 39.2525064,26.6267842 38.8045726,26.6267842 L2.12648077,26.6267842 C1.67854701,26.6267842 1.31419017,26.2623397 1.31419017,25.8144936 L1.31419017,24.666406 L2.34304487,24.666406 L17.6620641,24.666406 L17.6620641,25.01 C17.6620641,25.6469017 18.1801709,26.1650085 18.8170726,26.1650085 L22.1139808,26.1650085 C22.7508825,26.1650085 23.2689893,25.6469017 23.2689893,25.01 L23.2689893,24.666406 L38.5880085,24.666406 L39.6168632,24.666406 L39.6168632,25.8144936 Z" id="Shape"></path>
            </g>
            <g id="Dot" transform="translate(33.000000, 26.000000)">
                <path d="M2.24700179,0.440492094 C2.70798123,0.513504064 3.1130406,0.786720059 3.35342205,1.18678199 C3.59380351,1.58684391 3.64487506,2.07275725 3.49292407,2.51405498 L3.86615508,2.64256873 C4.05609383,2.09094656 3.99225439,1.48355489 3.69177757,0.983477484 C3.39130075,0.483400074 2.88497653,0.14188008 2.30875223,0.0506151172 L2.24700179,0.440492094 Z" id="Shape" stroke="#FF6174" stroke-width="0.2"></path>
                <path d="M3.22707257,2.99366378 C2.93335263,3.35637769 2.49421095,3.5705614 2.02755643,3.57870689 C1.56090191,3.58685237 1.11455284,3.38812496 0.808353294,3.03588268 L0.510441618,3.29485335 C0.893191052,3.7351562 1.45112739,3.98356547 2.03444554,3.97338361 C2.61776369,3.96320175 3.16669079,3.69547212 3.53384071,3.24207972 L3.22707257,2.99366378 Z" id="Shape" stroke="#FF6174" stroke-width="0.2"></path>
                <path d="M0.157407053,2.70730516 L0.525925642,2.56584413 C0.358666144,2.13011824 0.392748451,1.64271854 0.619021515,1.23451113 C0.845294579,0.826303713 1.2405721,0.539117786 1.69872264,0.450062342 L1.6234033,0.0625779274 C1.05071512,0.173897232 0.556618223,0.532879642 0.273776894,1.04313891 C-0.00906443569,1.55339817 -0.0516673199,2.21822288 0.157407053,2.76288025" id="Shape" stroke="#FF6174" stroke-width="0.2"></path>
                <circle id="Oval" fill="#FF6174" cx="2" cy="2" r="1"></circle>
            </g>
        </g>
    </g>
</svg>