<?xml version="1.0" encoding="UTF-8"?>
<svg width="45px" height="45px" viewBox="0 0 45 45" version="1.1" xmlns="http://www.w3.org/2000/svg" xmlns:xlink="http://www.w3.org/1999/xlink">
    <!-- Generator: Sketch 48.1 (47250) - http://www.bohemiancoding.com/sketch -->
    <title>Private</title>
    <desc>Created with Sketch.</desc>
    <defs></defs>
    <g id="Symbols" stroke="none" stroke-width="1" fill="none" fill-rule="evenodd">
        <g id="Private" fill="#4A90E2" fill-rule="nonzero">
            <g id="006-lock" transform="translate(12.000000, 4.000000)">
                <path d="M21.7074688,15.1625598 L18.2046633,13.1486044 L18.2046633,10.509465 C18.2046633,7.02646302 16.323225,3.78102323 13.2944464,2.03952224 L10.8524469,0.635286505 C9.37956912,-0.211762168 7.62071459,-0.211762168 6.14752469,0.635286505 C4.67449085,1.48225747 3.7951026,2.9992517 3.7951026,4.69319362 L3.7951026,8.35912703 C3.7951026,8.35912703 1.81011966,9.5009331 0.292609222,10.3737818 C0.11158165,10.4779144 0,10.6702488 0,10.878514 L0,27.6441717 C0,27.8524369 0.11158165,28.0447713 0.292609222,28.1489039 L14.8731317,36.5325876 C14.9636455,36.5846539 15.0646932,36.610687 15.1657409,36.610687 C15.2667886,36.610687 15.3678364,36.5846539 15.4583502,36.5325876 C15.4597547,36.5317328 21.7073907,32.9391584 21.7073907,32.9391584 C21.8884183,32.8350258 22,32.6426914 22,32.4344262 L22,15.667292 C22.000078,15.4590268 21.8884963,15.2666147 21.7074688,15.1625598 Z M20.2446567,15.6674474 L15.165819,18.5892991 L1.75588942,10.8787471 L3.79767756,9.70399165 C3.84925481,10.7558085 4.72466358,11.5957855 5.79342852,11.5957855 C6.89519978,11.5957855 7.79159838,10.7030428 7.79159838,9.60568737 L7.79159838,8.50887591 L14.2081675,12.1976563 L14.2081675,15.5931558 C14.2081675,16.6905113 15.1045661,17.5832539 16.2064154,17.5832539 C17.3081866,17.5832539 18.2045852,16.6905113 18.2045852,15.5931558 L18.2045852,14.494557 L20.2446567,15.6674474 Z M14.2081675,10.8517815 L7.79159838,7.16300105 L7.79159838,4.69319362 C7.79159838,4.33883198 8.01359124,4.15830959 8.14577258,4.08223063 C8.27810998,4.00615167 8.54614003,3.90497209 8.85419901,4.08223063 L11.2962766,5.48638865 C13.092429,6.51916635 14.2081675,8.44390961 14.2081675,10.509465 L14.2081675,10.8517815 Z M4.96553949,4.69319362 C4.96553949,3.42067784 5.6262121,2.28096997 6.73274314,1.64475093 C7.83943023,1.00837648 9.16069742,1.00845419 10.2672285,1.64475093 L12.709228,3.04890896 C15.3769658,4.58284416 17.0342264,7.44151687 17.0342264,10.5093873 L17.0342264,15.5930781 C17.0342264,16.0476868 16.6628858,16.4175129 16.2064934,16.4175129 C15.7501011,16.4175129 15.3786824,16.0476868 15.3786824,15.5930781 L15.3786824,10.5093873 C15.3786824,8.02870034 14.0386102,5.71718999 11.881573,4.47684651 L9.43949549,3.07268849 C9.14540371,2.9035896 8.82290934,2.81904015 8.50018087,2.81904015 C8.17753043,2.81904015 7.85480197,2.9035896 7.56071019,3.07268849 C6.97244861,3.41096398 6.62123952,4.01672035 6.62123952,4.69319362 L6.62123952,9.60568737 C6.62123952,10.0602961 6.24989891,10.4301222 5.79350655,10.4301222 C5.33711419,10.4301222 4.96569555,10.0602961 4.96569555,9.60568737 L4.96569555,4.69319362 L4.96553949,4.69319362 Z M14.5806005,35.0184687 L1.17051492,27.3077613 L1.17051492,11.8880561 L14.5806005,19.5987635 L14.5806005,35.0184687 Z M15.7510374,35.0180801 L15.7510374,19.5986858 L20.8296411,16.6769896 L20.8296411,32.0980158 L15.7510374,35.0180801 Z" id="Shape"></path>
            </g>
        </g>
    </g>
</svg>