<?xml version="1.0" encoding="UTF-8"?>
<svg width="295px" height="195px" viewBox="0 0 295 195" version="1.1" xmlns="http://www.w3.org/2000/svg" xmlns:xlink="http://www.w3.org/1999/xlink">
    <!-- Generator: Sketch 47.1 (45422) - http://www.bohemiancoding.com/sketch -->
    <title>write live docs</title>
    <desc>Created with Sketch.</desc>
    <defs>
        <rect id="path-1" x="13" y="14" width="269" height="169" rx="11"></rect>
        <filter x="-3.7%" y="-3.0%" width="107.4%" height="111.8%" filterUnits="objectBoundingBox" id="filter-2">
            <feOffset dx="0" dy="5" in="SourceAlpha" result="shadowOffsetOuter1"></feOffset>
            <feGaussianBlur stdDeviation="2.5" in="shadowOffsetOuter1" result="shadowBlurOuter1"></feGaussianBlur>
            <feColorMatrix values="0 0 0 0 0   0 0 0 0 0   0 0 0 0 0  0 0 0 0.5 0" type="matrix" in="shadowBlurOuter1"></feColorMatrix>
        </filter>
    </defs>
    <g id="Symbols" stroke="none" stroke-width="1" fill="none" fill-rule="evenodd">
        <g id="write-live-docs">
            <g id="Artboard-4">
                <g id="Rectangle-4">
                    <use fill="black" fill-opacity="1" filter="url(#filter-2)" xlink:href="#path-1"></use>
                    <use fill="#2D3D4D" fill-rule="evenodd" xlink:href="#path-1"></use>
                </g>
            </g>
            <g id="writing" transform="translate(93.000000, 43.000000)" fill-rule="nonzero">
                <path d="M54.5002129,109 C84.5175781,109 109,84.5175781 109,54.4997871 C109,24.4824219 84.5175781,0 54.5002129,0 C24.4824219,0 0,24.4824219 0,54.4997871 C0,84.5175781 24.4824219,109 54.5002129,109 Z" id="Shape" fill-opacity="0.878623188" fill="#3A5C81"></path>
                <polygon id="Shape" fill="#FFFFFF" points="28 19 82 19 82 79.8243569 70.8386579 91 28 91"></polygon>
                <polygon id="Shape" fill="#FFDB88" points="71 80 82 80 71 91"></polygon>
                <path d="M35,42.1634263 L74,42.1634263 L74,42.7431115 L35,42.7431115 L35,42.1634263 Z M35,38.372715 L35,38.372715 L74,38.372715 L74,38.9524002 L35,38.9524002 L35,38.372715 Z M35,34.5821974 L35,34.5821974 L74,34.5821974 L74,35.1618826 L35,35.1618826 L35,34.5821974 Z M35,30.791486 L35,30.791486 L74,30.791486 L74,31.3711713 L35,31.3711713 L35,30.791486 Z" id="Shape" fill="#C8CACC"></path>
                <path d="M35,73.7907113 L35,73.7907113 L74,73.7907113 L74,74.3703965 L35,74.3703965 L35,73.7907113 Z M35,70 L35,70 L74,70 L74,70.5796852 L35,70.5796852 L35,70 Z" id="Shape" fill="#C8CACC"></path>
            </g>
            <rect id="Rectangle-6" fill="#E9E9E9" x="128" y="89" width="39" height="20"></rect>
            <g id="white" transform="translate(130.000000, 91.000000)" fill="#FFFFFF">
                <rect id="Rectangle-2" x="0" y="0" width="2" height="2"></rect>
            </g>
            <g id="white" transform="translate(148.000000, 91.000000)" fill="#FFFFFF">
                <rect id="Rectangle-2" x="0" y="0" width="4" height="2"></rect>
            </g>
            <g id="white" transform="translate(145.000000, 101.000000)" fill="#FFFFFF">
                <rect id="Rectangle-2" x="0" y="0" width="4" height="2"></rect>
            </g>
            <g id="blue" transform="translate(134.000000, 91.000000)" fill="#318FB6">
                <rect id="Rectangle-3" x="0" y="0" width="12" height="2"></rect>
            </g>
            <g id="blue" transform="translate(141.000000, 96.000000)" fill="#318FB6">
                <rect id="Rectangle-3" x="0" y="0" width="13" height="2"></rect>
            </g>
            <g id="green" transform="translate(130.000000, 101.000000)" fill="#9EDE76">
                <rect id="Rectangle-2" x="0" y="0" width="13" height="2"></rect>
            </g>
            <g id="orange" transform="translate(130.000000, 96.000000)" fill="#E1BE7E">
                <rect id="Rectangle-3" x="0" y="0" width="9" height="2"></rect>
            </g>
            <g id="orange" transform="translate(155.000000, 96.000000)" fill="#E1BE7E">
                <rect id="Rectangle-3" x="0" y="0" width="9" height="2"></rect>
            </g>
            <g id="orange" transform="translate(130.000000, 106.000000)" fill="#E1BE7E">
                <rect id="Rectangle-3" x="0" y="0" width="9" height="2"></rect>
            </g>
        </g>
    </g>
</svg>